<?xml version="1.0" standalone="no"?>
<!DOCTYPE svg PUBLIC "-//W3C//DTD SVG 20010904//EN"
 "http://www.w3.org/TR/2001/REC-SVG-20010904/DTD/svg10.dtd">
<svg version="1.0" xmlns="http://www.w3.org/2000/svg"
 width="10.000000pt" height="10.000000pt" viewBox="0 0 300.000000 246.000000"
 preserveAspectRatio="xMidYMid meet">
<metadata>
Created by potrace 1.10, written by Peter Selinger 2001-2011
</metadata>
<g transform="translate(0.000000,246.000000) scale(0.100000,-0.100000)"
fill="#000000" stroke="none">
<path d="M2603 2390 c-28 -17 -36 -33 -72 -147 -22 -70 -48 -156 -58 -190
l-18 -63 -993 0 c-909 0 -996 -1 -1022 -17 -31 -18 -50 -51 -50 -89 0 -28 274
-997 292 -1032 27 -53 15 -52 741 -52 l673 0 -26 -83 c-42 -130 -44 -139 -23
-135 12 2 25 25 41 73 35 110 38 139 13 164 -20 20 -26 20 -676 20 -360 1
-666 3 -680 7 -17 4 -29 18 -39 47 -37 99 -276 960 -276 991 0 70 -66 66 1022
66 697 0 984 3 1002 11 26 12 44 47 76 154 48 161 74 231 88 243 11 8 57 12
147 12 147 0 165 -7 165 -66 0 -50 -11 -56 -110 -65 -79 -7 -95 -12 -109 -31
-13 -18 -102 -290 -141 -433 -5 -16 -20 -66 -33 -110 -14 -44 -48 -156 -76
-250 -28 -93 -55 -184 -61 -200 -5 -17 -34 -111 -64 -210 -30 -99 -73 -241
-96 -315 -22 -74 -44 -156 -47 -182 l-6 -48 -42 39 c-69 64 -99 75 -185 72
-183 -7 -900 -5 -951 3 -142 21 -273 -86 -286 -234 -14 -154 102 -282 255
-282 236 0 349 274 184 445 l-37 39 40 -9 c50 -10 555 -9 610 1 l40 8 -37 -39
c-52 -54 -78 -115 -78 -189 0 -144 114 -256 262 -256 172 0 297 167 248 332
-10 32 13 114 257 922 l268 888 77 0 c89 0 124 13 144 51 24 48 18 87 -20 125
l-34 34 -133 0 c-115 0 -139 -3 -166 -20z m-1539 -1867 c60 -17 96 -42 130
-94 14 -22 16 -39 10 -95 -8 -81 -21 -117 -59 -162 -45 -54 -97 -75 -176 -70
-89 5 -142 39 -181 117 -46 90 -33 175 35 248 67 71 134 86 241 56z m1017 -3
c54 -30 97 -119 98 -205 1 -66 -39 -139 -97 -179 -57 -41 -158 -49 -218 -18
-82 42 -117 102 -128 217 -6 65 -5 73 18 104 38 51 56 65 111 83 58 20 177 18
216 -2z"/>
<path d="M889 467 c-18 -12 -44 -38 -56 -56 -40 -59 -27 -172 26 -221 26 -25
87 -50 120 -50 76 0 170 71 173 132 5 108 -16 159 -80 196 -55 31 -137 30
-183 -1z m182 -22 c68 -44 88 -151 41 -215 -66 -89 -190 -93 -255 -9 -51 67
-44 150 16 209 56 55 129 60 198 15z"/>
<path d="M1875 471 c-72 -44 -103 -115 -86 -192 13 -57 38 -90 91 -116 89 -46
191 -14 237 74 18 36 15 139 -6 173 -47 74 -165 105 -236 61z m173 -24 c126
-85 64 -287 -88 -287 -107 0 -181 100 -150 203 30 102 148 144 238 84z"/>
<path d="M670 1812 c-37 -4 -70 -26 -70 -48 0 -10 73 -276 99 -359 5 -16 24
-82 41 -145 52 -191 71 -244 92 -267 l21 -22 637 -1 c387 0 648 4 663 9 32 12
45 36 73 131 12 41 52 174 89 295 37 121 76 253 88 293 l20 73 -21 22 -22 22
-838 0 c-460 0 -853 -1 -872 -3z m1717 -44 c-5 -14 -204 -672 -219 -726 l-9
-32 -656 2 -655 3 -103 362 c-57 199 -106 371 -110 383 l-6 20 881 0 c702 0
881 -3 877 -12z"/>
<path d="M1267 383 c-10 -3 -16 -10 -14 -16 5 -17 429 -17 434 -1 2 6 -6 14
-19 18 -26 7 -374 6 -401 -1z"/>
</g>
</svg>
