
<svg version="1.0" xmlns="http://www.w3.org/2000/svg"
 width="288.000000pt" height="53.000000pt" viewBox="0 0 288.000000 53.000000"
 preserveAspectRatio="xMidYMid meet">

<g transform="translate(0.000000,53.000000) scale(0.100000,-0.100000)"
fill="#d68099" stroke="red">
<path d="M1973 458 l-43 -9 0 -57 c0 -31 -3 -114 -7 -184 l-6 -128 62 0 c44 0
61 4 60 13 -1 6 -1 33 0 60 1 38 4 47 19 47 12 0 22 -17 36 -60 12 -38 24 -59
32 -56 6 2 32 8 58 11 25 4 46 9 46 11 0 3 -13 28 -29 56 l-30 52 30 33 c23
27 29 43 29 79 0 62 -21 98 -73 123 -47 23 -111 26 -184 9z m160 -32 c74 -31
90 -95 42 -168 -25 -38 -27 -45 34 -82 19 -47 18 -61 -4 -64 -15 -2 -26 9
-45 45 -29 56 -59 67 -84 31 -9 -12 -16 -32 -16 -44 0 -27 -24 -48 -45 -40
-13 5 -16 26 -15 123 1 151 7 182 34 193 33 13 113 11 149 -4z"/>
<path d="M2036 384 c-33 -32 -13 -134 25 -134 16 0 53 22 66 39 20 25 15 66
-10 89 -27 26 -59 28 -81 6z m74 -36 c14 -26 13 -29 -5 -47 -11 -10 -30 -22
-42 -26 -22 -6 -23 -4 -23 50 0 55 0 56 27 53 17 33 -13 43 -30z"/>
<path d="M2267 275 c-3 -104 -4 -190 -4 -191 3 -1 222 18 223 20 1 0 4 27 6
59 l5 57 -55 0 -54 0 6 78 c4 42 9 97 12 122 l5 45 -69 0 -69 0 -6 -190z m103
44 c0 -118 5 -129 65 -129 23 0 26 -4 23 -27 -4 -32 -26 -40 -105 -42 -66 -1
-67 3 -58 175 7 140 10 147 58 136 15 -4 17 -18 37 -113z"/>
<path d="M70 396 l0 -64 41 5 40 6 -2 -129 -2 -128 54 3 c30 1 55 3 56 4 0 1
5 58 10 127 l8 125 43 3 42 3 0 55 0 54 -145 0 -145 0 0 -64z m255 9 c0 -11
-11 -25 -26 -32 -43 -21 -50 -37 -59 -138 -6 -53 -12 -100 -15 -106 -5 -8 -43
-13 -46 -6 -1 1 -4 52 -8 112 l-6 110 -32 15 c-31 14 -44 46 -26 64 4 3 54 5
112 4 98 -3 106 -4 106 -23z"/>
<path d="M1405 361 c-4 -56 -5 -105 -2 -107 7 -7 27 63 27 96 0 52 11 70 40
70 15 0 30 -6 32 -12 7 -19 -37 -267 -49 -279 -6 -6 -30 -9 -54 -7 l-43 3 -14
55 c-14 58 -32 88 -32 55 0 -10 5 -47 11 -82 l11 -64 76 3 76 3 27 164 c16 91
31 171 33 178 4 9 -4 13 -27 13 -18 0 -48 3 -68 6 l-37 6 -7 -101z"/>
<path d="M460 429 c-80 -46 -110 -147 -68 -229 32 -63 77 -90 148 -90 43 0 66
6 91 23 41 27 79 98 79 147 0 49 -38 120 -79 147 -45 30 -122 31 -171 2z m158
-29 c35 -21 62 -72 62 -114 0 -14 -7 -44 -16 -66 -42 -104 -199 -109 -247 -7
-31 64 -15 132 42 180 41 34 109 37 159 7z"/>
<path d="M485 335 c-48 -48 -15 -145 49 -145 40 0 80 41 80 83 0 76 -79 113
-129 62z m87 -12 c28 -25 24 -79 -8 -100 -19 -12 -30 -14 -43 -6 -27 17 -41
53 -30 82 17 43 49 53 81 24z"/>
<path d="M762 440 c-29 -4 -55 -10 -57 -12 -2 -2 18 -46 45 -98 l49 -95 -6
-77 -6 -78 72 0 73 0 -3 78 -4 77 59 98 c32 53 61 97 65 97 4 0 19 -73 35
-162 16 -90 30 -165 31 -168 2 -3 37 -4 78 -2 l74 3 12 69 c6 38 11 75 11 82
0 23 -19 -13 -36 -69 l-15 -53 -49 0 c-57 0 -52 -9 -80 145 -26 140 -26 135
14 135 l34 0 12 -68 c22 -134 41 -90 22 52 l-7 49 -132 1 -132 1 -21 -57 c-12
-32 -23 -58 -25 -58 -2 0 -12 27 -22 60 -9 33 -22 59 -28 59 -5 -1 -34 -5 -63
-9z m228 -38 c0 -3 -19 -37 -42 -76 -36 -58 -44 -82 -48 -135 -6 -71 -25 -96
-57 -75 -13 8 -20 30 -24 80 -4 50 -14 86 -37 131 -18 34 -32 67 -32 73 0 5
13 10 30 10 24 0 35 -8 54 -39 14 -22 29 -42 34 -45 11 -6 52 21 52 35 0 24
32 57 50 52 11 -3 20 -8 20 -11z"/>
<path d="M1655 438 c-62 -34 -97 -90 -98 -157 -1 -100 65 -171 161 -171 29 0
66 7 82 15 111 58 121 239 16 300 -46 27 -124 34 -161 13z m168 -56 c26 -26
31 -40 34 -89 7 -96 -44 -155 -133 -155 -79 0 -138 60 -138 139 0 90 62 147
152 140 43 -3 59 -10 85 -35z"/>
<path d="M1670 335 c-48 -51 -15 -145 51 -145 35 0 79 50 79 91 0 39 -40 79
-78 79 -18 0 -38 -10 -52 -25z m76 -3 c38 -25 36 -90 -5 -111 -37 -20 -71 11
-71 63 0 37 48 67 76 48z"/>
<path d="M2549 443 c-18 -4 -29 -110 -29 -270 l0 -83 68 0 c115 0 212 62 228
146 10 52 -1 123 -23 152 -33 44 -80 62 -158 61 -38 -1 -77 -3 -86 -6z m181
-38 c39 -20 60 -63 60 -123 0 -93 -68 -152 -182 -160 l-58 -4 0 125 c0 69 4
137 10 151 9 24 14 26 75 26 39 0 78 -6 95 -15z"/>
<path d="M2636 338 c-19 -27 -22 -138 -4 -156 20 -20 48 -14 79 17 22 23 29
39 29 69 0 75 -68 121 -104 70z m62 -12 c31 -40 15 -109 -31 -132 l-30 -16 6
47 c4 26 7 65 7 85 0 33 3 37 20 33 10 -3 23 -10 28 -17z"/>
<path d="M1232 352 c-7 -42 -12 -84 -12 -92 1 -38 24 21 44 113 5 21 12 27 31
27 27 0 34 -12 54 -85 6 -22 17 -49 25 -60 13 -18 13 -11 1 55 -25 130 -19
120 -78 120 l-53 0 -12 -78z"/>
</g>
</svg>
