<?xml version="1.0" standalone="no"?>
<!DOCTYPE svg PUBLIC "-//W3C//DTD SVG 20010904//EN"
 "http://www.w3.org/TR/2001/REC-SVG-20010904/DTD/svg10.dtd">
<svg version="1.0" xmlns="http://www.w3.org/2000/svg"
 width="300.000000pt" height="200.000000pt" viewBox="0 0 300.000000 200.000000"
 preserveAspectRatio="xMidYMid meet">
<metadata>
Created by potrace 1.10, written by Peter Selinger 2001-2011
</metadata>
<g transform="translate(0.000000,200.000000) scale(0.100000,-0.100000)"
fill="#000000" stroke="none">
<path d="M68 1973 c-13 -32 -12 -74 4 -158 18 -97 35 -97 32 -1 -2 44 2 94 8
109 8 20 8 35 0 52 -15 33 -30 32 -44 -2z"/>
<path d="M336 1992 c19 -12 24 -68 9 -88 -8 -11 -15 -25 -15 -33 0 -28 37 19
43 54 8 49 -1 75 -27 75 -12 0 -16 -3 -10 -8z"/>
<path d="M1284 1993 c3 -6 -1 -19 -10 -27 -8 -9 -14 -16 -12 -17 42 -10 61 13
32 40 -9 9 -14 11 -10 4z"/>
<path d="M1826 1943 c2 -67 11 -114 25 -127 5 -6 9 20 8 70 -1 91 -5 114 -22
114 -8 0 -12 -19 -11 -57z"/>
<path d="M2774 1934 c5 -38 9 -77 9 -86 1 -10 6 -19 12 -21 6 -3 10 26 10 82
0 76 -2 86 -19 89 -18 4 -19 0 -12 -64z"/>
<path d="M635 1874 c-3 -20 -4 -39 0 -42 9 -9 25 19 25 45 0 37 -17 35 -25 -3z"/>
<path d="M2867 1813 c-17 -4 -17 -6 -2 -30 12 -17 15 -36 10 -59 -3 -20 -2
-34 4 -34 5 0 17 -3 26 -7 15 -5 17 0 14 39 -3 36 -1 44 10 40 9 -3 12 -1 7 6
-4 7 -14 12 -23 12 -10 0 -14 6 -10 20 5 20 -1 22 -36 13z"/>
<path d="M1443 1707 c-8 -13 -2 -15 77 -22 52 -4 71 -3 60 4 -16 11 -10 15 35
24 11 2 -22 3 -73 3 -52 -1 -96 -5 -99 -9z"/>
<path d="M1887 1683 c-10 -10 -8 -75 2 -69 5 3 9 22 9 41 0 37 -1 39 -11 28z"/>
<path d="M1125 1571 c-2 -4 -2 -17 1 -28 6 -20 7 -20 25 -5 10 9 19 19 19 23
0 10 -39 18 -45 10z"/>
<path d="M749 1558 c0 -2 -2 -21 -4 -43 l-4 -40 14 33 c8 17 19 32 25 32 5 0
10 5 10 10 0 8 -39 15 -41 8z"/>
<path d="M458 1528 c5 -7 13 -42 16 -78 9 -85 16 -89 16 -7 0 36 3 72 6 81 5
12 0 16 -21 16 -21 0 -25 -3 -17 -12z"/>
<path d="M1440 1530 c-9 -6 -10 -10 -3 -10 6 0 15 -10 18 -21 6 -17 9 -18 16
-8 10 16 93 23 118 9 14 -7 20 -6 25 6 3 8 10 12 16 9 5 -3 10 -2 10 3 0 5
-33 9 -73 9 -41 0 -83 3 -93 7 -10 3 -26 1 -34 -4z"/>
<path d="M1730 1516 c-5 -15 -10 -34 -10 -41 0 -17 -30 -34 -47 -28 -34 12
-78 -82 -53 -112 20 -24 30 -17 24 15 -6 26 -3 30 14 30 15 0 22 9 27 31 8 36
30 33 30 -4 -1 -16 5 -27 12 -27 7 0 13 -4 13 -9 0 -5 16 -19 37 -31 42 -24
52 -19 77 41 l15 36 -41 16 c-22 9 -44 15 -47 13 -3 -2 -7 12 -8 32 -1 19 -9
42 -17 50 -14 14 -16 13 -26 -12z m35 -76 c3 -11 11 -20 16 -20 5 0 14 -11 19
-25 5 -14 15 -25 21 -25 7 0 10 -3 6 -6 -9 -9 -77 18 -77 31 0 6 -5 16 -12 23
-6 6 -13 19 -14 27 -3 23 34 18 41 -5z"/>
<path d="M2264 1411 c1 -40 3 -46 11 -30 10 18 12 18 28 2 16 -16 17 -16 17 2
0 16 -42 75 -54 75 -1 0 -2 -22 -2 -49z"/>
<path d="M1976 1434 c-3 -8 4 -18 14 -24 11 -6 20 -9 20 -6 0 2 3 11 6 19 3 9
-2 16 -15 20 -11 3 -22 -1 -25 -9z"/>
<path d="M1980 1382 c0 -5 17 -14 38 -22 20 -8 42 -17 47 -19 6 -2 7 0 3 4
-13 13 -88 45 -88 37z"/>
<path d="M730 1338 c0 -30 1 -31 15 -12 19 25 19 44 0 44 -10 0 -15 -10 -15
-32z"/>
<path d="M1666 1363 c-5 -6 4 -115 10 -122 2 -2 4 16 4 42 0 25 5 49 10 52 6
3 10 1 10 -4 0 -6 4 -11 9 -11 10 0 24 31 17 38 -8 7 -54 11 -60 5z"/>
<path d="M2120 1360 c0 -11 39 -34 46 -27 6 6 -25 37 -37 37 -5 0 -9 -4 -9
-10z"/>
<path d="M2860 1347 c0 -14 7 -28 16 -31 12 -5 15 0 12 21 -4 35 -28 43 -28
10z"/>
<path d="M2100 1325 c0 -2 18 -14 40 -25 22 -11 40 -16 40 -10 0 5 -16 17 -36
25 -40 16 -44 17 -44 10z"/>
<path d="M1762 1308 c2 -7 27 -24 56 -37 28 -14 54 -33 58 -43 3 -10 12 -18
20 -18 8 0 32 -9 53 -20 21 -10 41 -17 43 -14 3 2 26 -5 52 -17 26 -11 59 -23
73 -25 37 -7 63 -23 63 -38 0 -8 13 -12 35 -12 25 1 35 5 33 15 -3 14 -47 32
-213 89 -85 29 -96 37 -87 60 3 9 1 13 -5 9 -6 -4 -25 0 -42 9 -18 9 -50 18
-72 21 -28 4 -39 10 -35 19 4 9 -2 14 -15 14 -12 0 -19 -5 -17 -12z"/>
<path d="M2195 1262 c3 -9 9 -29 12 -44 3 -16 10 -28 15 -28 6 0 7 7 4 16 -3
9 -9 27 -12 40 l-6 24 46 -22 c39 -20 48 -30 58 -65 14 -50 26 -56 24 -14 -1
16 -4 27 -8 24 -5 -2 -8 4 -8 15 0 20 -68 63 -107 68 -19 2 -23 -1 -18 -14z"/>
<path d="M2346 1264 c-3 -9 -6 -17 -6 -19 0 -1 29 -15 65 -30 63 -27 65 -29
82 -82 22 -69 46 -95 79 -87 18 5 29 1 39 -12 8 -11 15 -14 15 -8 0 17 -23 33
-59 40 -37 8 -51 29 -42 63 5 20 -1 31 -34 60 -46 42 -78 61 -100 61 -8 0 -15
7 -15 15 0 20 -16 19 -24 -1z"/>
<path d="M504 1235 c-4 -8 -2 -32 4 -52 l10 -38 1 39 1 38 183 -6 c240 -9 257
-12 257 -41 0 -31 -25 -49 -73 -51 -97 -5 -112 -7 -89 -11 12 -2 22 -11 22
-19 0 -14 -39 -18 -220 -19 -36 0 -67 -4 -70 -9 -3 -6 18 -9 50 -8 70 3 84 -6
71 -41 -7 -17 -7 -27 -1 -27 6 0 10 8 10 18 0 37 16 45 86 43 37 -1 69 -3 71
-4 1 -2 -3 -47 -9 -100 l-11 -97 -126 -2 c-110 -1 -117 -2 -51 -7 55 -4 68 -8
50 -13 -14 -4 -44 -8 -68 -8 -29 0 -41 -4 -36 -11 3 -6 17 -9 30 -6 14 2 21 0
17 -6 -4 -6 21 -7 71 -2 73 6 78 5 97 -16 l20 -23 -2 42 c-2 31 2 45 16 55 14
11 17 21 12 46 -6 29 -5 31 18 25 24 -6 25 -4 25 36 0 25 -4 39 -10 35 -5 -3
-10 1 -10 10 0 12 8 15 38 11 20 -3 42 -5 47 -6 6 0 2 -5 -8 -11 -14 -8 -17
-21 -15 -58 3 -51 10 -54 53 -23 19 14 19 14 -6 10 -16 -3 -26 0 -26 8 0 7 6
10 14 7 7 -3 13 0 13 6 0 6 -10 12 -22 12 -17 1 -19 2 -5 6 10 3 17 14 17 29
0 39 17 19 26 -29 10 -59 10 -107 1 -110 -5 -1 -3 -15 3 -31 l10 -29 -55 5
c-30 3 -55 1 -55 -4 0 -13 105 -9 118 4 7 7 13 23 13 38 1 16 3 19 6 8 2 -10
11 -18 18 -18 12 0 12 5 4 28 -6 15 -15 60 -20 101 -9 80 -17 91 -64 89 l-30
-1 33 -4 c62 -8 31 -18 -46 -15 -57 3 -79 7 -79 17 0 8 20 15 59 19 32 4 58
11 58 16 0 6 -4 10 -10 10 -5 0 -10 7 -10 15 0 10 10 15 30 15 29 0 30 1 30
50 0 28 1 53 3 57 2 8 -12 9 -301 17 -154 5 -184 3 -188 -9z m396 -145 c0 -16
-7 -20 -30 -20 -32 0 -37 9 -18 28 19 19 48 15 48 -8z"/>
<path d="M2030 1235 c0 -3 14 -11 30 -16 17 -6 30 -15 30 -21 0 -5 4 -6 10 -3
5 3 19 1 31 -5 11 -7 23 -9 26 -7 2 3 -16 14 -40 25 -59 26 -87 35 -87 27z"/>
<path d="M1616 1202 c-2 -4 5 -32 16 -62 11 -30 25 -70 31 -87 12 -34 27 -44
27 -18 0 8 -9 38 -19 67 -10 29 -22 65 -25 81 -6 26 -20 35 -30 19z"/>
<path d="M367 1138 c-5 -18 3 -48 14 -48 5 0 9 6 9 14 0 8 3 21 6 30 4 10 1
16 -9 16 -8 0 -17 -6 -20 -12z"/>
<path d="M504 1125 c3 -9 0 -18 -7 -21 -8 -3 -13 -25 -14 -57 l-1 -52 9 49 c6
26 16 55 24 63 20 19 19 33 -1 33 -10 0 -14 -5 -10 -15z"/>
<path d="M453 1120 c-13 -5 -23 -18 -23 -29 0 -21 -18 -31 -61 -31 -23 0 -29
-4 -29 -22 0 -20 1 -20 20 -3 11 10 26 15 35 11 21 -8 65 3 65 16 0 5 -4 6
-10 3 -21 -13 -9 15 15 33 38 30 33 40 -12 22z"/>
<path d="M2032 1097 c-12 -13 -22 -28 -22 -34 0 -6 -17 -17 -37 -26 -35 -14
-36 -15 -7 -10 24 4 32 0 41 -19 7 -14 12 -17 12 -8 1 8 6 32 12 53 l10 37 62
0 c67 1 62 13 -9 24 -34 5 -44 2 -62 -17z"/>
<path d="M2300 1106 c0 -16 -15 -22 -23 -8 -2 4 -2 1 -1 -5 2 -7 -2 -13 -8
-13 -7 0 -3 -7 8 -15 16 -13 17 -16 4 -25 -22 -14 -40 -12 -46 5 -6 14 -64 23
-64 10 0 -3 27 -31 60 -62 33 -32 60 -63 60 -70 0 -9 17 -14 53 -15 85 -3 162
3 168 14 4 7 9 6 13 -1 11 -17 96 -14 96 3 0 19 60 16 84 -3 14 -12 16 -11 16
7 0 20 -6 22 -117 24 -115 3 -118 4 -121 26 -2 14 -14 27 -28 33 -37 13 -49
12 -34 -6 7 -8 21 -15 31 -15 11 0 19 -6 19 -14 0 -8 3 -22 7 -32 18 -47 -97
74 -119 126 -9 21 -12 22 -15 8 -5 -21 -16 -23 -32 -5 -7 10 -7 17 0 24 8 8 8
13 0 17 -6 4 -11 0 -11 -8z m30 -92 c0 -11 -6 -14 -22 -10 -13 3 -17 3 -10 0
14 -6 17 -34 3 -34 -16 0 -31 27 -25 44 8 21 54 21 54 0z m67 -55 c15 -13 18
-39 4 -39 -6 0 -13 5 -16 10 -3 6 -19 10 -35 10 -31 0 -45 13 -34 31 7 13 60
5 81 -12z"/>
<path d="M2054 1043 c-3 -10 -10 -28 -15 -41 -13 -32 -13 -32 31 -32 36 0 40
2 40 26 0 14 5 34 10 45 10 17 7 19 -25 19 -25 0 -37 -5 -41 -17z m43 -20 c4
-11 -26 -47 -34 -40 -2 3 -1 17 3 31 6 26 24 31 31 9z"/>
<path d="M1025 1041 c-3 -6 51 -10 139 -9 80 0 149 -3 155 -6 5 -4 15 -32 22
-64 12 -55 24 -81 33 -71 3 2 -3 36 -13 74 -13 47 -24 71 -37 76 -28 11 -292
11 -299 0z"/>
<path d="M735 978 c-4 -36 -5 -74 -2 -84 3 -12 5 -7 6 13 0 17 6 35 11 38 12
8 13 65 1 84 -6 9 -11 -7 -16 -51z"/>
<path d="M1733 1030 c-13 -5 -23 -14 -23 -21 0 -6 -6 -9 -14 -6 -8 3 -20 -1
-26 -9 -17 -19 -30 -18 -57 8 -19 18 -23 19 -23 5 0 -9 9 -22 21 -30 18 -13
26 -13 69 1 32 10 46 20 43 29 -3 8 2 13 16 13 12 0 21 5 21 10 0 6 -1 10 -2
9 -2 0 -13 -4 -25 -9z"/>
<path d="M1800 1026 c-6 -8 -17 -13 -23 -11 -13 5 -45 -11 -37 -18 3 -2 17 -7
33 -11 20 -5 27 -3 27 8 0 8 7 22 16 30 8 9 11 16 6 16 -5 0 -15 -6 -22 -14z"/>
<path d="M1090 995 c0 -12 5 -26 11 -32 17 -17 -30 -46 -50 -30 -12 10 -14 9
-8 -6 4 -10 7 -23 7 -29 0 -12 259 -7 267 5 3 5 1 13 -5 19 -6 6 -12 6 -16 -1
-9 -14 -56 -15 -56 -1 0 6 -7 10 -15 10 -8 0 -15 -4 -15 -10 0 -5 -10 -10 -22
-10 -12 0 -18 3 -14 7 4 4 -8 14 -26 23 -21 10 -33 22 -33 35 0 16 7 20 40 20
22 1 48 -5 57 -13 21 -17 38 -8 31 16 -4 15 -15 18 -79 17 -68 0 -74 -2 -74
-20z"/>
<path d="M2570 1001 c-12 -23 2 -29 28 -12 10 6 10 10 -2 20 -12 10 -17 8 -26
-8z"/>
<path d="M1860 999 c0 -14 11 -16 65 -15 38 1 63 5 61 11 -4 12 -52 14 -85 2
-17 -5 -27 -4 -33 5 -6 10 -8 9 -8 -3z"/>
<path d="M491 929 c0 -35 3 -58 6 -50 4 11 10 8 24 -10 17 -22 16 -20 -1 45
-11 38 -22 71 -25 74 -3 3 -5 -24 -4 -59z"/>
<path d="M342 957 c-6 -12 -14 -55 -17 -94 -5 -69 -5 -73 15 -73 24 0 26 13 5
30 -14 12 -14 15 1 31 11 12 14 27 9 48 -3 16 -2 39 4 50 6 11 7 22 3 25 -5 3
-14 -5 -20 -17z"/>
<path d="M2126 963 c-3 -4 -6 -17 -6 -30 0 -19 5 -23 30 -23 26 0 30 -4 30
-26 0 -21 -3 -24 -13 -15 -8 6 -17 8 -20 4 -17 -17 -2 -23 57 -23 70 0 79 -6
93 -60 l9 -35 90 -3 c49 -1 139 2 199 7 l110 9 -133 -1 c-72 0 -135 3 -139 6
-3 4 -33 7 -65 7 -55 0 -58 1 -58 24 0 22 4 24 51 24 42 1 51 -2 59 -21 8 -21
9 -20 9 6 1 26 0 27 -55 27 -34 0 -53 4 -49 10 4 6 -20 10 -64 10 -80 0 -89
10 -36 41 43 26 36 43 -15 34 -31 -5 -43 -2 -58 13 -11 11 -23 18 -26 15z"/>
<path d="M1413 946 c3 -8 -1 -17 -9 -20 -20 -8 -8 -26 17 -26 14 0 19 7 19 30
0 21 -5 30 -16 30 -10 0 -14 -6 -11 -14z"/>
<path d="M1794 953 l-141 -4 -42 -91 c-23 -50 -40 -93 -37 -95 10 -10 64 55
83 102 24 55 48 66 104 46 18 -6 27 -6 24 -1 -7 12 58 13 95 3 l25 -7 -30 -7
c-29 -6 -29 -7 8 -8 34 -1 37 -3 37 -31 0 -26 -4 -30 -27 -31 l-28 -1 25 -8
c14 -4 19 -8 11 -9 -8 -1 -19 -8 -26 -18 -11 -15 -14 -15 -36 0 -31 22 -39 21
-39 -3 0 -23 -29 -27 -49 -7 -10 10 -11 8 -5 -7 6 -17 15 -18 87 -13 44 4 82
9 85 11 2 3 7 43 9 90 5 67 9 86 22 89 12 3 12 4 1 4 -8 -1 -79 -3 -156 -4z"/>
<path d="M1975 931 c-3 -6 12 -11 32 -13 l38 -3 19 -82 c18 -76 22 -83 44 -83
20 0 23 4 18 23 -3 12 -13 55 -23 95 l-17 72 -52 0 c-29 0 -55 -4 -59 -9z
m124 -94 c7 -32 11 -61 8 -64 -3 -2 -10 22 -17 54 -6 32 -13 65 -16 73 -3 9
-2 11 4 5 5 -5 14 -36 21 -68z"/>
<path d="M1807 893 c-3 -5 -7 -21 -8 -38 -3 -22 0 -31 14 -33 12 -3 17 3 17
21 0 14 3 32 6 41 6 16 -20 24 -29 9z"/>
<path d="M2488 881 c-74 -11 -69 -22 7 -19 40 2 69 7 68 13 -3 13 -17 14 -75
6z"/>
<path d="M2620 862 c0 -20 4 -23 40 -20 31 1 40 6 40 20 0 13 -8 18 -30 18
-17 0 -30 -5 -30 -12 0 -9 -4 -8 -10 2 -8 12 -10 11 -10 -8z"/>
<path d="M1983 815 c0 -25 4 -45 8 -45 5 0 9 20 9 45 0 25 -4 45 -9 45 -4 0
-8 -20 -8 -45z"/>
<path d="M1690 820 c-6 -11 -9 -25 -8 -32 2 -8 -7 -12 -24 -11 -16 1 -28 -2
-28 -8 0 -5 23 -9 50 -9 28 0 50 5 50 10 0 6 -7 10 -15 10 -23 0 -18 26 7 37
l22 10 -22 5 c-16 4 -25 1 -32 -12z"/>
<path d="M490 818 c0 -4 -13 -8 -30 -8 -25 0 -30 -4 -30 -25 0 -14 -6 -28 -14
-31 -8 -3 -12 -13 -9 -25 9 -31 -41 -25 -65 8 -24 33 -40 25 -19 -9 8 -12 18
-42 22 -66 5 -33 13 -46 35 -57 16 -8 37 -25 47 -38 15 -20 33 -25 108 -35 50
-6 113 -11 140 -10 l50 0 -50 12 c-41 10 -49 15 -47 31 2 11 10 25 19 32 9 7
12 19 9 31 -5 13 -2 19 6 18 7 0 14 4 16 9 3 13 -21 14 -30 0 -5 -6 -8 -3 -8
7 0 30 11 46 29 41 9 -2 23 2 30 11 10 12 4 15 -44 21 -67 9 -81 0 -89 -60 -4
-27 -3 -33 2 -20 5 11 14 21 21 21 24 3 24 4 5 18 -10 8 -16 18 -12 22 14 14
46 -27 53 -67 6 -35 4 -42 -19 -60 -14 -11 -24 -25 -21 -30 4 -5 1 -9 -5 -9
-23 0 -43 32 -48 76 -2 24 -9 44 -13 44 -5 0 -9 -5 -9 -11 0 -5 -4 -7 -10 -4
-5 3 -10 -3 -10 -14 0 -12 -4 -21 -9 -21 -5 0 -15 -13 -23 -30 l-15 -30 -22
24 c-25 27 -40 99 -22 110 7 5 11 -3 12 -21 0 -27 1 -27 10 -5 5 13 14 20 20
16 6 -3 4 4 -5 17 -9 15 -12 30 -7 38 10 16 43 11 49 -8 3 -10 0 -12 -14 -7
-17 6 -17 5 1 -16 11 -13 22 -25 24 -28 2 -3 0 6 -3 20 -7 24 -7 25 10 5 16
-20 16 -20 9 4 -5 16 -4 21 4 17 6 -4 11 -2 11 3 0 6 -7 11 -16 11 -18 0 -44
23 -44 39 0 6 1 11 3 11 1 0 19 6 41 14 l39 13 -32 5 c-17 2 -31 1 -31 -4z
m40 -250 c0 -5 -9 -8 -20 -8 -22 0 -28 26 -7 33 12 4 27 -10 27 -25z"/>
<path d="M1133 822 l-73 -3 0 -52 0 -52 147 3 c111 2 148 0 154 -10 14 -22 27
3 34 64 l7 58 -98 -3 c-55 -1 -132 -3 -171 -5z m237 -18 c-57 -7 -218 -8 -213
-1 2 4 57 6 121 6 64 -1 106 -3 92 -5z m-80 -26 c0 -5 21 -8 48 -9 l47 -1 -40
-9 c-22 -5 -47 -12 -55 -15 -26 -11 -64 -13 -75 -5 -5 4 -37 9 -70 10 -43 1
-56 -1 -45 -9 12 -8 11 -10 -8 -10 -15 0 -22 5 -20 13 3 7 27 13 58 15 30 2
61 8 70 15 8 6 12 7 8 3 -9 -10 30 -41 39 -32 4 3 1 6 -5 6 -6 0 -9 7 -5 17 5
12 3 14 -7 8 -8 -5 -11 -4 -6 3 7 12 66 12 66 0z"/>
<path d="M2150 810 c0 -5 22 -10 50 -10 36 0 52 -5 59 -17 9 -16 10 -16 11 3
0 12 -7 25 -16 28 -26 10 -104 7 -104 -4z"/>
<path d="M1483 748 c-8 -9 -7 -17 3 -26 12 -11 15 -10 20 3 9 22 -10 40 -23
23z"/>
<path d="M720 737 c0 -7 11 -12 28 -11 45 2 52 4 52 14 0 6 -18 10 -40 10 -26
0 -40 -5 -40 -13z"/>
<path d="M858 744 c-4 -3 -14 -7 -24 -8 -10 -2 -18 -13 -20 -27 -3 -31 7 -92
14 -85 3 3 16 -7 30 -22 13 -15 21 -21 18 -14 -4 6 -2 12 3 12 18 0 12 -38 -6
-49 -10 -6 -12 -11 -5 -11 17 0 15 -20 -2 -20 -7 0 -19 7 -26 15 -11 13 -10
18 6 30 13 11 15 15 4 13 -8 -2 -18 -7 -22 -13 -4 -5 -10 5 -14 23 -6 29 -8
31 -20 15 -19 -26 -17 -43 6 -43 11 0 20 -7 20 -15 0 -9 -9 -15 -24 -15 -13 0
-26 -7 -30 -15 -4 -10 1 -15 16 -15 17 0 18 -2 8 -15 -8 -9 -9 -15 -2 -15 6 0
13 3 16 8 2 4 49 6 103 4 54 -2 122 -4 151 -5 28 -1 52 -6 52 -10 0 -6 5 -5
13 0 14 11 27 11 46 -1 10 -7 12 -6 6 4 -6 10 -1 12 21 7 15 -3 38 -1 51 4 13
5 30 6 38 3 25 -10 -2 -34 -39 -34 -29 -1 -30 -1 -12 -15 32 -24 64 -19 81 15
14 28 14 30 -7 42 -26 14 -56 12 -78 -5 -13 -10 -13 -10 -3 4 7 9 10 19 6 22
-3 4 3 7 15 7 26 0 52 36 52 73 0 28 1 29 40 22 32 -5 40 -4 40 8 0 14 -23 15
-182 10 -142 -5 -185 -9 -194 -21 -5 -7 -21 -12 -34 -10 -21 2 -26 10 -32 52
-9 62 -56 115 -80 90z m42 -42 c13 -10 21 -23 19 -28 -2 -5 -17 3 -33 19 -32
30 -21 37 14 9z m-24 -10 c18 -12 34 -49 34 -79 l-1 -28 -25 30 c-17 21 -23
24 -18 10 7 -19 6 -19 -12 -2 -18 17 -18 19 -1 31 15 12 16 14 2 20 -8 3 -15
10 -15 16 0 12 20 13 36 2z m232 -83 c-2 -6 -7 -10 -11 -10 -4 1 -14 1 -22 1
-8 0 -15 5 -15 10 0 6 12 10 26 10 14 0 24 -5 22 -11z m167 1 c-3 -5 -24 -10
-46 -10 -21 0 -39 5 -39 10 0 6 21 10 46 10 27 0 43 -4 39 -10z m-311 -39 c-3
-9 -9 -24 -11 -33 -4 -12 -15 -18 -34 -18 -30 0 -31 11 -2 56 17 26 58 22 47
-5z m275 15 c25 -5 23 -23 -5 -45 -37 -29 -56 -26 -76 10 -31 54 -32 54 81 35z
m-166 -23 c24 -3 51 -16 63 -29 l21 -22 -43 -4 c-24 -2 -44 1 -44 5 0 5 -9 5
-20 2 -12 -4 -36 -8 -55 -10 l-35 -3 20 25 c11 14 20 32 20 40 0 10 6 13 16 9
9 -3 34 -9 57 -13z"/>
<path d="M1550 722 c0 -16 3 -50 6 -74 6 -45 7 -46 70 -72 36 -14 73 -26 83
-26 10 0 21 -7 25 -15 3 -8 15 -15 26 -15 11 0 20 -4 20 -8 0 -8 -55 -15 -127
-16 -22 -1 -39 -5 -35 -10 3 -5 -2 -6 -11 -3 -10 4 -24 10 -32 13 -10 4 -13 0
-10 -15 5 -26 -11 -27 -25 -2 -7 14 -7 20 2 23 6 2 8 9 4 16 -3 6 -14 8 -22 5
-11 -4 -12 -8 -4 -13 6 -4 12 -11 11 -16 0 -16 -45 -22 -67 -8 -17 10 -21 10
-21 -2 0 -8 6 -14 13 -14 7 0 14 -4 16 -10 2 -5 18 -14 36 -19 20 -6 30 -6 27
0 -4 5 -1 9 4 9 6 0 11 -7 11 -15 0 -9 9 -15 23 -15 18 0 19 2 7 10 -13 9 -13
11 0 20 8 5 22 7 32 4 9 -2 19 0 22 5 4 6 18 6 38 0 22 -6 35 -5 43 3 7 8 6 9
-5 3 -13 -7 -13 -6 -1 6 8 8 15 10 17 4 6 -16 330 -9 554 13 52 5 106 10 120
11 14 0 39 2 55 4 17 2 76 7 133 12 97 7 130 18 103 35 -13 8 -18 81 -6 100 4
6 14 9 24 5 12 -5 13 -3 5 5 -9 9 -18 8 -38 -5 -22 -14 -26 -15 -26 -3 0 20
36 52 49 43 6 -3 11 1 11 10 0 13 -9 15 -47 11 -27 -3 -118 -8 -203 -12 -139
-5 -156 -8 -172 -26 -10 -12 -18 -25 -18 -30 0 -5 -15 -6 -34 -3 -28 6 -36 3
-50 -16 -13 -19 -16 -20 -16 -6 0 9 9 26 21 38 20 20 22 20 40 3 11 -9 19 -12
19 -6 0 6 -11 19 -25 28 -14 9 -25 19 -25 23 0 3 27 6 60 6 33 0 60 3 60 7 0
5 -33 8 -74 8 -41 0 -81 3 -90 6 -11 4 -16 1 -16 -10 0 -10 9 -16 25 -16 28 0
32 -12 11 -29 -8 -6 -24 -38 -36 -71 -26 -70 -40 -75 -120 -44 -45 18 -89 24
-238 31 -140 7 -186 13 -193 24 -15 24 -10 29 30 29 35 0 39 2 34 21 -5 18 -7
19 -15 5 -13 -23 -31 -20 -23 4 4 12 2 20 -5 20 -6 0 -9 -4 -6 -9 7 -10 -18
-34 -26 -25 -3 3 -4 14 -1 24 4 16 12 19 47 16 22 -2 51 -4 64 -5 24 -1 31
-21 7 -21 -9 0 -12 -6 -8 -17 4 -11 8 -12 11 -5 2 7 10 12 19 12 27 0 9 35
-22 41 -17 3 6 5 50 5 44 0 61 -1 38 -4 -42 -3 -54 -14 -31 -28 7 -4 8 -3 4 4
-5 9 12 12 61 12 37 0 78 3 91 6 22 6 22 6 5 -25 -19 -33 -28 -38 -39 -19 -4
7 -3 8 4 4 8 -5 10 -1 5 10 -4 11 -8 13 -11 6 -2 -7 -10 -12 -18 -12 -9 0 -13
-3 -11 -7 3 -5 -8 -9 -24 -10 -16 -1 -29 3 -29 9 0 6 -2 9 -5 6 -3 -3 -3 -11
0 -19 4 -11 22 -13 74 -11 62 3 70 6 74 25 2 14 4 11 3 -7 -1 -16 4 -31 9 -33
10 -3 11 11 7 89 l-2 27 -185 1 c-102 0 -192 3 -200 6 -11 5 -15 -1 -15 -24z
m1060 -41 c0 -11 -50 -44 -57 -38 -2 3 0 15 7 26 10 20 50 30 50 12z m-262
-13 c18 -18 14 -32 -4 -17 -14 11 -19 10 -35 -10 -25 -31 -37 -19 -15 14 18
27 35 32 54 13z m157 -23 c0 -22 -5 -31 -20 -33 -62 -9 -64 -10 -52 -37 7 -14
15 -25 19 -25 5 0 25 16 47 35 48 44 62 45 57 3 -3 -18 -5 -37 -5 -42 -1 -4
-14 -6 -31 -4 -16 3 -30 0 -30 -5 0 -5 -19 -7 -44 -5 -35 4 -43 2 -39 -8 3 -8
-1 -14 -11 -14 -18 0 -22 25 -6 35 6 3 10 19 10 36 0 16 5 29 10 29 17 0 11
42 -7 56 -15 11 -9 13 42 11 59 -2 60 -2 60 -32z m120 -29 c7 -37 -8 -76 -29
-76 -9 0 -13 17 -15 55 -1 49 1 55 18 55 15 0 22 -9 26 -34z m-261 -45 c-3
-14 -7 -32 -10 -38 -5 -18 -41 -16 -47 1 -4 11 -1 13 11 9 14 -5 15 -3 5 8 -7
7 -13 25 -13 39 0 14 6 32 13 39 18 18 49 -23 41 -58z m-116 8 c4 -58 -17 -82
-48 -54 -11 10 -20 23 -20 28 0 6 6 3 13 -7 13 -17 14 -18 20 -2 4 10 3 15 -3
11 -11 -7 -14 34 -4 60 4 9 14 15 23 13 11 -2 17 -16 19 -49z m-303 -17 c50
-13 56 -17 35 -22 -17 -4 -2 -9 48 -14 41 -4 72 -9 69 -12 -2 -2 -69 -6 -148
-9 -133 -4 -141 -3 -110 10 18 8 43 12 56 9 13 -3 32 -1 42 6 14 9 -5 10 -82
5 -64 -3 -95 -2 -86 4 11 7 9 10 -9 13 -13 1 -25 9 -28 16 -6 19 136 15 213
-6z m222 -6 c-3 -7 -1 -18 5 -24 7 -7 4 -14 -10 -21 -29 -16 -37 3 -15 34 20
27 28 32 20 11z"/>
<path d="M1021 703 c-8 -9 -25 -13 -42 -11 -24 4 -27 2 -18 -14 6 -10 7 -28 4
-38 -5 -16 -2 -20 14 -20 17 0 21 6 21 30 0 31 3 33 60 33 27 0 29 1 8 4 -15
2 -28 10 -30 18 -2 10 -6 10 -17 -2z"/>
<path d="M2001 698 c-1 -27 1 -28 44 -28 27 0 45 5 45 11 0 8 5 8 15 -1 13
-11 15 -9 13 13 -2 21 -7 25 -34 25 -27 0 -31 -3 -28 -21 4 -18 3 -18 -7 3
l-11 25 -10 -25 -11 -25 -7 25 -8 25 -1 -27z"/>
<path d="M700 691 c0 -16 26 -31 53 -31 22 0 28 -4 23 -15 -3 -8 -2 -15 3 -15
5 0 11 11 13 25 4 20 1 26 -16 30 -48 11 -76 13 -76 6z"/>
<path d="M2740 652 c0 -22 -4 -42 -8 -44 -5 -1 -12 -15 -16 -30 -5 -21 -3 -28
9 -28 26 0 30 2 27 12 -2 6 4 18 13 28 22 25 17 94 -7 98 -15 3 -18 -4 -18
-36z"/>
<path d="M1353 666 c0 -8 11 -17 25 -21 29 -7 37 -2 29 20 -8 19 -54 20 -54 1z"/>
<path d="M1066 655 c4 -8 17 -15 30 -15 15 0 24 6 24 15 0 10 -10 15 -30 15
-22 0 -28 -4 -24 -15z"/>
<path d="M1710 645 c0 -7 12 -10 33 -8 26 4 29 2 17 -7 -10 -8 -11 -10 -2 -8
24 6 14 23 -18 29 -20 4 -30 3 -30 -6z"/>
<path d="M2018 623 c17 -2 47 -2 65 0 17 2 3 4 -33 4 -36 0 -50 -2 -32 -4z"/>
<path d="M146 601 c-3 -4 -19 -11 -36 -15 -19 -3 -29 -10 -25 -16 5 -8 11 -7
22 1 12 10 16 10 24 -2 5 -8 9 -11 10 -6 1 4 2 10 3 15 1 4 5 13 9 20 5 6 6
12 3 12 -3 0 -7 -4 -10 -9z"/>
<path d="M2050 600 c0 -12 27 -12 55 0 16 7 13 9 -17 9 -21 1 -38 -3 -38 -9z"/>
<path d="M136 534 c-8 -21 -8 -24 5 -24 5 0 8 4 5 9 -8 12 20 22 42 15 14 -5
15 -4 2 5 -22 16 -47 13 -54 -5z"/>
<path d="M80 519 c0 -4 -7 -14 -15 -22 -13 -13 -13 -16 0 -21 8 -3 14 -2 14 2
-4 22 3 32 21 32 11 0 20 4 20 9 0 6 -9 9 -20 8 -11 -1 -20 -4 -20 -8z"/>
<path d="M326 521 c-26 -10 -6 -22 32 -19 21 1 28 6 25 16 -5 11 -7 11 -14 0
-7 -10 -9 -10 -9 0 0 13 -6 14 -34 3z"/>
<path d="M737 524 c13 -6 6 -35 -11 -46 -6 -4 2 -8 18 -8 23 0 26 3 17 14 -6
7 -9 21 -5 30 4 11 1 16 -12 15 -11 0 -14 -3 -7 -5z"/>
<path d="M627 497 c5 -8 81 -2 91 7 3 3 -17 5 -45 4 -28 -2 -49 -7 -46 -11z"/>
<path d="M1407 468 c-7 -23 -1 -38 14 -38 5 0 8 14 7 30 -3 35 -13 39 -21 8z"/>
<path d="M2750 473 c0 -19 5 -23 34 -23 21 0 36 6 40 15 6 17 -9 21 -19 5 -3
-5 -12 -10 -18 -10 -7 0 -6 4 3 11 12 9 12 10 -4 5 -11 -4 -23 -1 -28 6 -5 9
-8 6 -8 -9z"/>
<path d="M2588 466 c-15 -11 -11 -13 27 -14 25 0 43 4 39 9 -3 5 -10 7 -15 3
-5 -3 -15 -1 -22 4 -8 7 -18 6 -29 -2z"/>
<path d="M2245 434 c-16 -7 -24 -13 -17 -14 8 0 21 -9 30 -19 17 -19 102 -37
102 -21 0 4 -22 10 -50 14 -51 7 -59 13 -38 34 18 18 6 21 -27 6z"/>
<path d="M2760 420 c0 -17 38 -50 43 -37 7 20 -4 36 -20 30 -11 -4 -14 -2 -9
5 4 7 2 12 -3 12 -6 0 -11 -4 -11 -10z"/>
</g>
</svg>
